<svg width="28" height="28" viewBox="0 0 28 28" fill="none" xmlns="http://www.w3.org/2000/svg">
<path d="M13.8764 3.11143C13.9961 2.7429 14.5175 2.7429 14.6372 3.11142L16.5323 8.94394C16.7465 9.60318 17.3609 10.0495 18.054 10.0495H24.1867C24.5742 10.0495 24.7353 10.5454 24.4218 10.7731L19.4604 14.3778C18.8996 14.7852 18.6649 15.5074 18.8791 16.1667L20.7742 21.9992C20.894 22.3677 20.4722 22.6742 20.1587 22.4464L15.1973 18.8417C14.6365 18.4343 13.8771 18.4343 13.3163 18.8417L8.35491 22.4464C8.04142 22.6742 7.61963 22.3677 7.73937 21.9992L9.63447 16.1667C9.84867 15.5074 9.61402 14.7853 9.05324 14.3778L4.0918 10.7731C3.77832 10.5454 3.93943 10.0495 4.32692 10.0495H10.4596C11.1528 10.0495 11.7671 9.60318 11.9813 8.94394L13.8764 3.11143Z" stroke="#808080" stroke-width="1.2"/>
</svg>
